<svg width="24" height="24" viewBox="0 0 24 24" fill="none" xmlns="http://www.w3.org/2000/svg">
<path d="M12.0045 12.3743C11.6534 12.3743 11.3136 12.2378 11.0645 11.9876L3.83849 4.66318C3.46473 4.27649 3.35147 3.7192 3.55534 3.21878C3.75921 2.71835 4.2349 2.3999 4.77854 2.3999H19.2305C19.7628 2.3999 20.2385 2.71835 20.4537 3.21878C20.6576 3.7192 20.5443 4.27649 20.1706 4.66318L12.9446 11.9762C12.6841 12.2264 12.3556 12.3743 12.0045 12.3743ZM5.4128 3.99216L12.0045 10.6683L18.5849 3.99216H5.4128Z" fill="#1A938A"/>
<path d="M19.6383 20.2899L12.3783 12.9314C12.1744 12.7267 11.8347 12.7267 11.6195 12.9314L4.35951 20.2899C4.03106 20.6311 4.26891 21.1997 4.73327 21.1997H19.2645C19.7402 21.1997 19.978 20.6197 19.6383 20.2899Z" fill="#043344"/>
</svg>
