<svg width="972" height="510" viewBox="0 0 972 510" fill="none" xmlns="http://www.w3.org/2000/svg">
<g clip-path="url(#clip0_1117_6898)">
<path d="M1029.52 508.006H205.425C195.305 507.982 185.609 503.88 178.462 496.601C171.315 489.321 167.301 479.458 167.301 469.175C167.301 458.9 171.318 449.047 178.467 441.781C185.617 434.516 195.314 430.435 205.425 430.435H966.731C864.022 263.441 682.553 226.706 680.49 226.341L678.158 225.794C517.5 184.228 366.441 212.942 229.644 310.932C167.775 354.779 113.845 409.181 70.2427 471.727C67.5386 476.019 64.0257 479.726 59.9064 482.633C55.7871 485.54 51.1427 487.591 46.2404 488.667C41.3381 489.743 36.2748 489.823 31.3419 488.902C26.409 487.982 21.7038 486.079 17.4975 483.304C9.00435 477.721 3.036 468.944 0.900509 458.897C-1.23498 448.85 0.636732 438.352 6.10533 429.705C54.8893 358.686 115.622 296.971 185.511 247.398C339.082 137.466 515.616 103.831 696.009 150.137C718.075 154.694 958.927 209.204 1064.96 453.405C1067.44 459.264 1068.47 465.653 1067.95 472.011C1067.44 478.37 1065.39 484.501 1062 489.867C1058.53 495.429 1053.73 500.009 1048.06 503.181C1042.38 506.353 1036 508.013 1029.52 508.006Z" fill="#EFEBE5"/>
<path d="M600.824 -0.00341797H467.167C446.111 -0.00341797 429.043 17.3412 429.043 38.7369V38.8281C429.043 60.2238 446.111 77.5684 467.167 77.5684H600.824C621.879 77.5684 638.947 60.2238 638.947 38.8281V38.7369C638.947 17.3412 621.879 -0.00341797 600.824 -0.00341797Z" fill="#EFEBE5"/>
</g>
<path d="M788.69 437.634C792.906 435.163 797.988 434.598 802.841 435.136C805.446 435.424 808.184 436.057 810.045 437.905C811.905 439.753 812.421 443.162 810.491 444.94C809.343 446 807.674 446.24 806.116 446.304C802.347 446.463 798.137 446.021 795.245 448.45C793.597 449.834 792.571 452.05 790.551 452.795C788.578 453.525 786.25 452.46 785.086 450.702C783.922 448.945 783.767 446.676 784.156 444.605C784.156 444.605 784.443 440.115 788.685 437.628L788.69 437.634Z" fill="#1EBAA9"/>
<path d="M777.739 418.973C780.588 422.621 785.67 421.093 787.935 418.648C790.2 416.209 791.029 412.801 791.778 409.553C793.485 402.134 795.197 394.354 793.235 386.999C792.65 384.8 791.699 382.627 790.051 381.061C788.403 379.496 785.952 378.644 783.788 379.341C781.226 380.167 779.754 382.803 778.712 385.285C775.666 392.591 774.267 400.585 774.666 408.493C774.852 412.189 775.49 416.039 777.733 418.973" fill="#1EBAA9"/>
<g opacity="0.2">
<path d="M777.739 418.973C780.588 422.621 785.67 421.093 787.935 418.648C790.2 416.209 791.029 412.801 791.778 409.553C793.485 402.134 795.197 394.354 793.235 386.999C792.65 384.8 791.699 382.627 790.051 381.061C788.403 379.496 785.952 378.644 783.788 379.341C781.226 380.167 779.754 382.803 778.712 385.285C775.666 392.591 774.267 400.585 774.666 408.493C774.852 412.189 775.49 416.039 777.733 418.973" fill="#1EBAA9"/>
</g>
<path d="M770.631 423.878C773.326 420.305 773.603 415.288 772.098 411.07C770.589 406.853 767.505 403.364 764.013 400.569C759.919 397.288 755.183 394.822 750.149 393.347C748.171 392.767 746.093 392.335 744.051 392.644C742.01 392.948 740 394.109 739.145 395.989C737.874 398.769 739.405 401.969 741.016 404.568C743.849 409.143 747.044 413.488 750.563 417.562C753.391 420.837 756.602 424.043 760.717 425.375C764.831 426.701 769.01 426.296 770.998 423.383" fill="#1EBAA9"/>
<path d="M780.674 478.256C777.771 423.857 785.379 394.354 785.379 394.354" stroke="#002E3C" stroke-width="3" stroke-linecap="round" stroke-linejoin="round"/>
<path d="M751.68 401.964C751.68 401.964 780.577 410.288 780.673 478.256" stroke="#002E3C" stroke-width="3" stroke-linecap="round" stroke-linejoin="round"/>
<path d="M798.531 440.291C798.531 440.291 778.808 443.295 780.669 478.139" stroke="#002E3C" stroke-width="3" stroke-linecap="round" stroke-linejoin="round"/>
<path d="M763.794 476.866L771.907 507.706H791.65L799.762 476.866C800.124 475.487 799.087 474.134 797.657 474.134H765.894C764.469 474.134 763.427 475.487 763.789 476.866H763.794Z" fill="#284B64" stroke="#002F3C" stroke-width="3" stroke-linecap="round" stroke-linejoin="round"/>
<path d="M313.183 459.601C298.41 453.738 291.754 438.07 288.873 423.271C288.394 420.8 287.523 418.276 288.208 415.858C288.894 413.435 291.302 411.331 293.764 411.853C295.8 412.284 297.091 414.218 298.527 415.73C300.435 417.743 302.923 419.202 305.608 419.879C307.373 420.326 309.441 420.368 310.801 419.16C312.673 417.498 312.253 414.521 311.673 412.087C310.599 407.55 309.52 403.013 308.446 398.476C307.867 396.042 307.288 393.555 307.521 391.063C307.755 388.57 308.951 386.03 311.147 384.842C313.343 383.649 316.553 384.321 317.601 386.589C318.037 387.537 318.068 388.613 318.371 389.609C318.674 390.605 319.408 391.616 320.445 391.675C321.492 391.734 322.321 390.812 322.895 389.934C324.873 386.882 325.867 383.314 326.755 379.789C327.643 376.263 328.467 372.674 330.157 369.457C331.848 366.241 334.553 363.375 338.035 362.364C341.523 361.352 345.781 362.641 347.466 365.862C349.151 369.09 347.928 373.047 346.36 376.338C344.037 381.221 341.007 385.764 337.392 389.784C336.738 390.509 336.031 391.292 335.946 392.266C335.787 394.013 337.716 395.27 339.46 395.429C341.438 395.61 343.389 394.961 345.361 394.742C347.338 394.524 349.614 394.881 350.757 396.51C352.341 398.768 350.836 401.868 349.156 404.057C345.791 408.439 341.672 412.242 337.036 415.24C335.372 416.316 333.596 417.333 332.427 418.931C331.252 420.528 330.875 422.925 332.156 424.437C333.437 425.955 335.835 425.976 337.653 425.193C339.471 424.405 340.938 422.994 342.591 421.902C345.69 419.857 350.119 419.08 352.957 421.471C354.823 423.047 355.562 425.667 355.36 428.101C355.164 430.535 354.148 432.83 353.011 434.987C349.034 442.538 343.245 449.216 336.005 453.727C328.764 458.238 321.646 460.645 313.183 459.622" fill="#284B64"/>
<path d="M313.183 459.601C298.41 453.738 291.754 438.07 288.873 423.271C288.394 420.8 287.523 418.276 288.208 415.858C288.894 413.435 291.302 411.331 293.764 411.853C295.8 412.284 297.091 414.218 298.527 415.73C300.435 417.743 302.923 419.202 305.608 419.879C307.373 420.326 309.441 420.368 310.801 419.16C312.673 417.498 312.253 414.521 311.673 412.087C310.599 407.55 309.52 403.013 308.446 398.476C307.867 396.042 307.288 393.555 307.521 391.063C307.755 388.57 308.951 386.03 311.147 384.842C313.343 383.649 316.553 384.321 317.601 386.589C318.037 387.537 318.068 388.613 318.371 389.609C318.674 390.605 319.408 391.616 320.445 391.675C321.492 391.734 322.321 390.812 322.895 389.934C324.873 386.882 325.867 383.314 326.755 379.789C327.643 376.263 328.467 372.674 330.157 369.457C331.848 366.241 334.553 363.375 338.035 362.364C341.523 361.352 345.781 362.641 347.466 365.862C349.151 369.09 347.928 373.047 346.36 376.338C344.037 381.221 341.007 385.764 337.392 389.784C336.738 390.509 336.031 391.292 335.946 392.266C335.787 394.013 337.716 395.27 339.46 395.429C341.438 395.61 343.389 394.961 345.361 394.742C347.338 394.524 349.614 394.881 350.757 396.51C352.341 398.768 350.836 401.868 349.156 404.057C345.791 408.439 341.672 412.242 337.036 415.24C335.372 416.316 333.596 417.333 332.427 418.931C331.252 420.528 330.875 422.925 332.156 424.437C333.437 425.955 335.835 425.976 337.653 425.193C339.471 424.405 340.938 422.994 342.591 421.902C345.69 419.857 350.119 419.08 352.957 421.471C354.823 423.047 355.562 425.667 355.36 428.101C355.164 430.535 354.148 432.83 353.011 434.987C349.034 442.538 343.245 449.216 336.005 453.727C328.764 458.238 321.646 460.645 313.183 459.622" stroke="#002F3C" stroke-width="3" stroke-linecap="round" stroke-linejoin="round"/>
<path d="M342.905 363.578C342.905 363.578 299.972 427.111 320.434 489.227" stroke="#002F3C" stroke-width="3" stroke-linecap="round" stroke-linejoin="round"/>
<path d="M289.621 413.376C289.621 413.376 315.335 443.108 315.345 443.001C315.356 442.895 354.157 422.829 354.157 422.829" stroke="#002F3C" stroke-width="3" stroke-linecap="round" stroke-linejoin="round"/>
<path d="M311.148 384.837L321.802 409.872L351.29 397.639" stroke="#002F3C" stroke-width="3" stroke-linecap="round" stroke-linejoin="round"/>
<path d="M295.613 470.981L305.278 507.706H328.785L338.45 470.981C338.88 469.336 337.642 467.728 335.946 467.728H298.117C296.421 467.728 295.183 469.336 295.613 470.981Z" fill="white" stroke="#002F3C" stroke-width="3" stroke-linecap="round" stroke-linejoin="round"/>
<path d="M601.508 154.458C600.105 155.342 599.27 156.093 599.047 156.743L591.977 168.501L599.86 171.894L603.502 159.246C610.662 159.943 625.255 155.433 625.255 154.479L601.508 154.458Z" fill="white" stroke="#002F3C" stroke-width="3" stroke-linecap="round" stroke-linejoin="round"/>
<path d="M538.339 155.678C545.701 162.106 558.678 209.678 561.91 210.322C571.835 193.105 578.714 183.264 592.147 166.824L600.695 170.775C595.172 204.544 575.312 241.284 556.86 240.336C542.496 239.596 531.508 220.446 523.108 205.891C514.709 191.337 538.339 155.672 538.339 155.672V155.678Z" fill="white" stroke="#002F3C" stroke-width="3" stroke-linecap="round" stroke-linejoin="round"/>
<path d="M494.025 118.65C490.527 118.128 465.898 80.0989 476.795 71.1947C482.356 66.6468 492.148 83.5924 492.148 83.5924C492.148 83.5924 501.722 117.654 494.025 118.65Z" fill="#43BDAB" stroke="#002F3C" stroke-width="3" stroke-linecap="round" stroke-linejoin="round"/>
<path d="M476.795 71.2002C466.504 79.6091 481.155 121.19 493.36 118.341C492.531 115.945 491.978 112.882 491.324 108.457C491.165 106.007 491.021 103.733 490.899 101.566L491.399 105.182L493.69 105.395C493.69 105.395 491.473 88.5558 494.019 78.6665C492.286 80.3493 482.744 88.7103 476.732 81.0576C472.771 76.0197 476.795 71.2002 476.795 71.2002Z" fill="#43BDAB" stroke="#002F3C" stroke-width="3" stroke-linecap="round" stroke-linejoin="round"/>
<path d="M519.67 494.877C519.67 494.877 522.976 499.665 530.179 502.535C537.388 505.406 541.875 504.761 541.476 506.684C541.077 508.601 513.726 507.637 513.817 505.406C513.907 503.174 515.316 499.984 515.209 494.877C515.103 489.77 519.67 494.877 519.67 494.877Z" fill="#284B64" stroke="#002F3C" stroke-width="3" stroke-linecap="round" stroke-linejoin="round"/>
<path d="M489.621 494.877C490.126 501.47 492.077 504.766 492.317 506.684C492.551 508.601 474.508 508.808 474.056 506.684C473.424 503.712 483.418 501.459 483.981 494.877C484.513 488.71 489.621 494.877 489.621 494.877Z" fill="#284B64" stroke="#002F3C" stroke-width="3" stroke-linecap="round" stroke-linejoin="round"/>
<path d="M464.408 267.012C464.408 267.012 460.41 303.752 475.082 374.708C475.082 374.708 470.128 406.176 469.559 416.913C468.894 429.401 479.633 496.917 479.633 496.917H492.295C493.141 467.526 496.793 441.362 497.92 418.579C498.728 402.321 496.979 387.788 497.792 375.033C500.556 331.727 503.039 308.939 503.039 308.939H505.187C505.187 308.939 510.152 368.259 509.971 374.708C509.785 381.157 504.698 409.015 504.405 419.048C504.118 429.081 511.38 496.917 511.38 496.917H524.957C534.015 327.099 536.089 327.365 536.96 267.278L464.402 267.012H464.408Z" fill="#284B64" stroke="#002F3C" stroke-width="3" stroke-linecap="round" stroke-linejoin="round"/>
<path d="M511.386 496.911H524.963C535.717 369.41 536.812 341.877 537.094 267.028L510.206 266.905L507.994 303.96L501.977 308.934H505.193C505.193 308.934 510.158 368.254 509.977 374.703C509.791 381.152 502.864 409.01 502.45 419.043C502.035 429.076 511.391 496.911 511.391 496.911H511.386Z" fill="#284B64" stroke="#002F3C" stroke-width="3" stroke-linecap="round" stroke-linejoin="round"/>
<path d="M537.09 267.028L464.409 267.006C464.409 267.006 464.303 268.141 464.191 270.351C469.274 273.487 485.105 281.279 513.939 278.829C523.869 277.987 531.141 276.693 536.968 275.202C537.005 272.603 537.053 269.871 537.09 267.022V267.028Z" fill="#284B64" stroke="#002F3C" stroke-width="3" stroke-linecap="round" stroke-linejoin="round"/>
<path d="M457.971 152.451L486.725 141.901C495.863 142.508 505.485 143.328 518.095 145.251L538.343 155.678C538.343 155.678 539.423 180.91 538.444 212.218C537.466 243.526 537.153 270.409 537.153 270.409C513.045 275.255 487.533 275.942 464.408 267.006C464.408 267.006 462.622 265.329 463.696 260.312C464.77 255.296 470.235 224.855 470.235 224.855C470.235 224.855 465.126 186.848 457.976 152.445L457.971 152.451Z" fill="#284B64" stroke="#002F3C" stroke-width="3" stroke-linecap="round" stroke-linejoin="round"/>
<path d="M518.096 145.245C505.487 143.328 495.865 142.503 486.726 141.896L476.578 145.618C479.491 150.645 495.11 176.772 514.024 192.727C514.024 192.727 524.337 172.799 527.899 150.288L518.096 145.24V145.245Z" fill="white" stroke="#002F3C" stroke-width="3" stroke-linecap="round" stroke-linejoin="round"/>
<path d="M489.72 105.357C489.72 105.357 493.297 128.523 488.965 143.046C488.965 143.046 505.801 151.156 510.713 150.666C515.625 150.171 516.831 147.636 516.831 147.636C516.831 147.636 514.62 142.002 515.343 130.185L489.72 105.363V105.357Z" fill="white" stroke="#002F3C" stroke-width="3" stroke-linecap="round" stroke-linejoin="round"/>
<path d="M511.322 151.034L513.045 140.948C513.045 140.948 515.501 136.027 516.234 136.15C516.973 136.272 519.179 145.624 519.179 145.624C519.179 145.624 516.968 151.093 511.322 151.034Z" fill="white" stroke="#002F3C" stroke-width="3" stroke-linecap="round" stroke-linejoin="round"/>
<path d="M510.095 151.034L506.166 140.947C506.166 140.947 491.43 131.228 489.469 131.601C488.475 131.788 486.029 142.673 486.029 142.673C486.029 142.673 490.697 151.529 510.095 151.034Z" fill="white" stroke="#002F3C" stroke-width="3" stroke-linecap="round" stroke-linejoin="round"/>
<path d="M537.088 270.963V269.179C533.069 269.845 524.728 271.155 509.971 271.698C490.078 272.438 477.554 266.532 477.554 265.057C477.554 263.582 482.344 229.265 481.977 223.359C481.61 217.453 469.086 171.697 469.086 171.697L464.439 187.167C468.006 208.309 470.234 224.861 470.234 224.861C470.234 224.861 464.769 255.301 463.695 260.318C462.621 265.334 464.408 267.012 464.408 267.012C487.532 275.942 512.985 275.815 537.088 270.969V270.963Z" fill="#284B64" stroke="#002F3C" stroke-width="3" stroke-linecap="round" stroke-linejoin="round"/>
<path d="M465.668 317.609C465.142 315.91 464.185 311.208 463.558 308.849C462.909 306.42 461.16 303.619 461.16 303.619L461.224 304.232C460.357 303.71 457.598 302.389 455.206 304.972C455.206 304.972 453.399 313.28 453.463 320.613C453.526 327.946 454.101 328.841 454.818 328.734C455.541 328.628 455.552 327.099 455.387 324.814C455.387 324.814 455.717 321.023 455.95 320.991C456.184 320.959 456.301 324.953 456.291 325.677C456.28 326.401 456.429 331.413 457.572 331.349C458.667 331.285 458.534 327.712 458.454 325.768C458.454 325.768 458.709 320.938 459.044 320.943C459.385 320.943 459.406 325.278 459.432 326.002C459.459 326.726 459.533 332.073 460.591 332.041C461.655 332.009 461.947 330.736 461.766 326.183C461.766 326.183 461.405 320.698 461.74 320.735C462.686 320.65 462.075 330.065 463.728 329.996C464.568 329.964 464.573 327.839 464.467 325.075C464.355 322.253 464.36 321.353 464.126 319.377C464.116 319.308 464.105 319.217 464.095 319.116C464.913 320.703 465.982 320.394 466.216 320.038C466.37 319.798 466.184 319.292 465.663 317.593L465.668 317.609Z" fill="white" stroke="#002F3C" stroke-width="3" stroke-linecap="round" stroke-linejoin="round"/>
<path d="M458.46 152.451C444.548 156.77 438.403 208.384 440.072 236.891C442.528 278.712 452.411 298.64 452.411 298.64L462.128 297.393C462.128 297.393 466.961 274.776 465.642 260.999C464.329 247.222 462.203 241.812 461.708 236.891C461.219 231.97 469.565 207.372 472.021 199.006C474.477 190.645 468.949 149.192 458.45 152.451H458.46Z" fill="white" stroke="#002F3C" stroke-width="3" stroke-linecap="round" stroke-linejoin="round"/>
<path d="M452.416 298.64L453.857 304.301L462.208 303.257L462.134 297.394L452.416 298.64Z" fill="white" stroke="#002F3C" stroke-width="3" stroke-linecap="round" stroke-linejoin="round"/>
<path d="M489.229 82.0269C499.441 90.9896 517.096 103.765 528.897 93.418C528.897 93.418 536.303 82.6606 534.017 69.7571C531.726 56.8535 469.938 44.1576 481.34 74.6352" fill="#43BDAB"/>
<path d="M489.229 82.0269C499.441 90.9896 517.096 103.765 528.897 93.418C528.897 93.418 536.303 82.6606 534.017 69.7571C531.726 56.8535 469.938 44.1576 481.34 74.6352" stroke="#002F3C" stroke-width="3" stroke-linecap="round" stroke-linejoin="round"/>
<path d="M491.324 108.452C492.025 113.213 492.541 116.403 493.381 118.879C496.597 127.128 505.99 131.767 505.99 131.767C508.712 133.705 517.962 133.412 519.945 131.921C521.822 130.51 528.727 115.476 529.397 108.622C529.806 104.421 529.275 100.778 529.285 97.7905C529.296 92.0337 529.891 87.9277 529.45 81.3668C529.019 74.8964 521.173 70.9289 511.445 71.3549C489.171 72.3295 489.564 81.6863 491.329 108.463L491.324 108.452Z" fill="white" stroke="#002F3C" stroke-width="3" stroke-linecap="round" stroke-linejoin="round"/>
<path d="M529.764 91.991C531.64 88.6785 535.813 79.8915 534.017 69.7572C533.878 68.9903 533.522 68.2235 532.996 67.4619C528.19 61.114 507.096 74.6726 501.982 76.8773C513.183 72.0418 519.387 71.8927 523.3 73.4797C527.478 75.5779 528.323 78.5495 529.764 91.991Z" fill="#43BDAB" stroke="#002F3C" stroke-width="3" stroke-linecap="round" stroke-linejoin="round"/>
<path d="M492.494 111.36C489.278 111.12 486.822 108.313 487.008 105.092C487.194 101.87 489.948 99.4572 493.164 99.7022" fill="white"/>
<path d="M492.494 111.36C489.278 111.12 486.822 108.313 487.008 105.092C487.194 101.87 489.948 99.4572 493.164 99.7022" stroke="#002F3C" stroke-width="3" stroke-linecap="round" stroke-linejoin="round"/>
<path d="M487.582 79.6197C487.055 85.6588 489.315 93.7588 490.888 105.15L493.69 105.39C493.69 105.39 491.473 88.5505 494.019 78.6611" fill="#43BDAB"/>
<path d="M487.582 79.6197C487.055 85.6588 489.315 93.7588 490.888 105.15L493.69 105.39C493.69 105.39 491.473 88.5505 494.019 78.6611" stroke="#002F3C" stroke-width="3" stroke-linecap="round" stroke-linejoin="round"/>
<path d="M484.801 142.668L486.523 140.697C491.924 148.201 513.289 154.352 519.062 145L520.413 146.353C513.725 156.706 492.482 151.955 484.801 142.662V142.668Z" fill="#43BDAB" stroke="#002F3C" stroke-width="3" stroke-linecap="round" stroke-linejoin="round"/>
<path d="M510.525 153.095C512.016 153.095 513.225 151.884 513.225 150.39C513.225 148.896 512.016 147.685 510.525 147.685C509.033 147.685 507.824 148.896 507.824 150.39C507.824 151.884 509.033 153.095 510.525 153.095Z" fill="#43BDAB" stroke="#002F3C" stroke-width="3" stroke-linecap="round" stroke-linejoin="round"/>
<path d="M508.771 149.037C508.771 149.037 500.669 144.484 498.601 145.304C496.709 146.055 496.9 154.629 499.016 155.273C500.552 155.742 508.951 151.987 508.951 151.987L508.776 149.032L508.771 149.037Z" fill="#43BDAB" stroke="#002F3C" stroke-width="3" stroke-linecap="round" stroke-linejoin="round"/>
<path d="M512.455 148.68C512.455 148.68 518.271 143.85 519.435 144.324C520.599 144.798 521.514 152.978 520.45 153.553C519.392 154.134 512.62 151.498 512.62 151.498L512.455 148.675V148.68Z" fill="#43BDAB" stroke="#002F3C" stroke-width="3" stroke-linecap="round" stroke-linejoin="round"/>
<path d="M592.148 166.824L596.088 160.631L602.536 163.581L600.697 170.776L592.148 166.824Z" fill="white" stroke="#002F3C" stroke-width="3" stroke-linecap="round" stroke-linejoin="round"/>
<path d="M514.715 191.343L514.023 192.733L519.531 198.511C519.531 198.511 517.814 218.689 517.075 232.711C516.336 246.733 516.777 273.818 516.777 273.818" fill="#284B64"/>
<path d="M514.715 191.343L514.023 192.733L519.531 198.511C519.531 198.511 517.814 218.689 517.075 232.711C516.336 246.733 516.777 273.818 516.777 273.818" stroke="#002F3C" stroke-width="3" stroke-linecap="round" stroke-linejoin="round"/>
<path d="M511.178 207.862C511.178 209.359 509.972 210.567 508.478 210.567C506.984 210.567 505.777 209.359 505.777 207.862C505.777 206.366 506.984 205.157 508.478 205.157C509.972 205.157 511.178 206.366 511.178 207.862Z" fill="#43BDAB" stroke="#002F3C" stroke-width="3" stroke-linecap="round" stroke-linejoin="round"/>
<path d="M509.462 231.97C509.462 233.467 508.255 234.676 506.761 234.676C505.267 234.676 504.061 233.467 504.061 231.97C504.061 230.474 505.267 229.265 506.761 229.265C508.255 229.265 509.462 230.474 509.462 231.97Z" fill="#43BDAB" stroke="#002F3C" stroke-width="3" stroke-linecap="round" stroke-linejoin="round"/>
<path d="M509.217 258.049C509.217 259.546 508.011 260.754 506.517 260.754C505.023 260.754 503.816 259.546 503.816 258.049C503.816 256.553 505.023 255.344 506.517 255.344C508.011 255.344 509.217 256.553 509.217 258.049Z" fill="#43BDAB" stroke="#002F3C" stroke-width="3" stroke-linecap="round" stroke-linejoin="round"/>
<path d="M656.944 154.458H579.314C578.363 154.458 577.448 154.064 576.773 153.366C576.098 152.669 575.721 151.732 575.721 150.746C575.721 149.761 576.098 148.824 576.773 148.132C577.448 147.439 578.363 147.045 579.314 147.045H651.033C641.357 131.095 624.261 127.586 624.07 127.549L623.852 127.495C608.717 123.523 594.486 126.265 581.6 135.627C575.774 139.818 570.692 145.011 566.583 150.986C566.327 151.396 565.998 151.748 565.61 152.03C565.222 152.307 564.786 152.504 564.323 152.605C563.861 152.706 563.382 152.717 562.92 152.626C562.457 152.536 562.011 152.355 561.617 152.094C560.815 151.561 560.256 150.72 560.054 149.761C559.852 148.803 560.028 147.796 560.544 146.971C565.137 140.186 570.862 134.291 577.443 129.556C591.908 119.055 608.542 115.843 625.532 120.263C627.61 120.7 650.299 125.908 660.288 149.234C660.522 149.793 660.617 150.405 660.57 151.013C660.522 151.62 660.33 152.205 660.006 152.717C659.682 153.249 659.23 153.686 658.693 153.99C658.156 154.293 657.555 154.453 656.949 154.453L656.944 154.458Z" fill="#43BDAB" stroke="#002F3C" stroke-width="3" stroke-linecap="round" stroke-linejoin="round"/>
<path d="M616.557 105.933H603.969C601.986 105.933 600.375 107.589 600.375 109.634V109.644C600.375 111.689 601.98 113.346 603.969 113.346H616.557C618.54 113.346 620.145 111.689 620.145 109.644V109.634C620.145 107.589 618.54 105.933 616.557 105.933Z" fill="#43BDAB" stroke="#002F3C" stroke-width="3" stroke-linecap="round" stroke-linejoin="round"/>
<path d="M516.824 93.7002V107.552C516.824 109.661 515.118 111.37 513.013 111.37H511.322" fill="white"/>
<path d="M516.824 93.7002V107.552C516.824 109.661 515.118 111.37 513.013 111.37H511.322" stroke="#002F3C" stroke-width="3" stroke-linecap="round" stroke-linejoin="round"/>
<path d="M520.919 119.752C520.919 119.752 514.466 126.414 505.418 118.655L520.919 119.752Z" fill="white"/>
<path d="M520.919 119.752C520.919 119.752 514.466 126.414 505.418 118.655" stroke="#002F3C" stroke-width="3" stroke-linecap="round" stroke-linejoin="round"/>
<path d="M488.964 77.8786C488.964 77.8786 491.745 82.5916 501.994 77.9691C523.662 68.1969 528.095 80.3975 528.095 80.3975C528.095 80.3975 522.721 53.4827 488.959 77.8839L488.964 77.8786Z" fill="#43BDAB" stroke="#002F3C" stroke-width="3" stroke-linecap="round" stroke-linejoin="round"/>
<defs>
<clipPath id="clip0_1117_6898">
<rect width="1068" height="508" fill="white"/>
</clipPath>
</defs>
</svg>
