<svg width="40" height="19" viewBox="0 0 40 19" fill="none" xmlns="http://www.w3.org/2000/svg">
<g clip-path="url(#clip0_993_6706)">
<path d="M38.5594 19H7.6943C7.3153 18.9991 6.95213 18.8457 6.68445 18.5734C6.41677 18.3012 6.26645 17.9323 6.26645 17.5477C6.26645 17.1634 6.41688 16.7948 6.68466 16.5231C6.95243 16.2514 7.31561 16.0987 7.6943 16.0987H36.2077C32.3609 9.85288 25.5643 8.47894 25.487 8.4653L25.3997 8.44484C19.3825 6.8902 13.7249 7.96413 8.6014 11.6291C6.28421 13.2691 4.26434 15.3038 2.6313 17.6431C2.53002 17.8037 2.39846 17.9423 2.24418 18.051C2.08989 18.1597 1.91595 18.2364 1.73234 18.2767C1.54873 18.3169 1.3591 18.3199 1.17434 18.2855C0.989591 18.2511 0.813368 18.1799 0.655826 18.0761C0.337732 17.8673 0.114198 17.539 0.0342171 17.1633C-0.0457637 16.7875 0.0243378 16.3949 0.229154 16.0714C2.05627 13.4152 4.33091 11.107 6.94846 9.25285C12.7002 5.14124 19.312 3.88321 26.0682 5.61513C26.8947 5.78559 35.9154 7.82435 39.8865 16.9579C39.9795 17.177 40.0181 17.416 39.9988 17.6538C39.9794 17.8916 39.9028 18.1209 39.7756 18.3216C39.6458 18.5296 39.4662 18.7009 39.2535 18.8195C39.0409 18.9382 38.8021 19.0003 38.5594 19Z" fill="#1A938A"/>
<path d="M22.5021 0H17.4962C16.7076 0 16.0684 0.648717 16.0684 1.44895V1.45236C16.0684 2.25259 16.7076 2.90131 17.4962 2.90131H22.5021C23.2907 2.90131 23.9299 2.25259 23.9299 1.45236V1.44895C23.9299 0.648717 23.2907 0 22.5021 0Z" fill="#1A938A"/>
</g>
<defs>
<clipPath id="clip0_993_6706">
<rect width="40" height="19" fill="white"/>
</clipPath>
</defs>
</svg>
